<mxfile host="app.diagrams.net" agent="Mozilla/5.0 (X11; Linux x86_64) AppleWebKit/537.36 (KHTML, like Gecko) Chrome/131.0.0.0 Safari/537.36 Edg/131.0.0.0" version="24.8.4">
  <diagram name="PÃ¡gina-1" id="Fp0cObmac8X4kcfg7oG-">
    <mxGraphModel dx="1386" dy="768" grid="1" gridSize="10" guides="1" tooltips="1" connect="1" arrows="1" fold="1" page="1" pageScale="1" pageWidth="827" pageHeight="1169" math="0" shadow="0">
      <root>
        <mxCell id="0" />
        <mxCell id="1" parent="0" />
        <mxCell id="Rpbk8-4QXfQWtiyHHp3N-10" value="" style="edgeStyle=orthogonalEdgeStyle;rounded=0;orthogonalLoop=1;jettySize=auto;html=1;" edge="1" parent="1" source="Rpbk8-4QXfQWtiyHHp3N-1" target="Rpbk8-4QXfQWtiyHHp3N-2">
          <mxGeometry relative="1" as="geometry" />
        </mxCell>
        <mxCell id="Rpbk8-4QXfQWtiyHHp3N-1" value="File" style="verticalLabelPosition=bottom;html=1;verticalAlign=top;strokeWidth=1;align=center;outlineConnect=0;dashed=0;outlineConnect=0;shape=mxgraph.aws3d.file;aspect=fixed;strokeColor=#292929;" vertex="1" parent="1">
          <mxGeometry x="364.6" y="30" width="30.8" height="70.6" as="geometry" />
        </mxCell>
        <mxCell id="Rpbk8-4QXfQWtiyHHp3N-19" style="edgeStyle=orthogonalEdgeStyle;rounded=0;orthogonalLoop=1;jettySize=auto;html=1;" edge="1" parent="1" source="Rpbk8-4QXfQWtiyHHp3N-8" target="Rpbk8-4QXfQWtiyHHp3N-1">
          <mxGeometry relative="1" as="geometry" />
        </mxCell>
        <mxCell id="Rpbk8-4QXfQWtiyHHp3N-8" value="User&lt;div&gt;&lt;br&gt;&lt;/div&gt;" style="shape=umlActor;verticalLabelPosition=bottom;verticalAlign=top;html=1;outlineConnect=0;" vertex="1" parent="1">
          <mxGeometry x="563.25" y="35.3" width="30" height="60" as="geometry" />
        </mxCell>
        <mxCell id="Rpbk8-4QXfQWtiyHHp3N-9" value="AWS Account" style="points=[[0,0],[0.25,0],[0.5,0],[0.75,0],[1,0],[1,0.25],[1,0.5],[1,0.75],[1,1],[0.75,1],[0.5,1],[0.25,1],[0,1],[0,0.75],[0,0.5],[0,0.25]];outlineConnect=0;gradientColor=none;html=1;whiteSpace=wrap;fontSize=12;fontStyle=0;container=1;pointerEvents=0;collapsible=0;recursiveResize=0;shape=mxgraph.aws4.group;grIcon=mxgraph.aws4.group_account;strokeColor=#CD2264;fillColor=none;verticalAlign=top;align=left;spacingLeft=30;fontColor=#CD2264;dashed=0;" vertex="1" parent="1">
          <mxGeometry x="80" y="160" width="600" height="570" as="geometry" />
        </mxCell>
        <mxCell id="Rpbk8-4QXfQWtiyHHp3N-11" value="" style="edgeStyle=orthogonalEdgeStyle;rounded=0;orthogonalLoop=1;jettySize=auto;html=1;" edge="1" parent="Rpbk8-4QXfQWtiyHHp3N-9" source="Rpbk8-4QXfQWtiyHHp3N-2" target="Rpbk8-4QXfQWtiyHHp3N-4">
          <mxGeometry relative="1" as="geometry" />
        </mxCell>
        <mxCell id="Rpbk8-4QXfQWtiyHHp3N-2" value="S3" style="outlineConnect=0;dashed=0;verticalLabelPosition=bottom;verticalAlign=top;align=center;html=1;shape=mxgraph.aws3.s3;fillColor=#E05243;gradientColor=none;" vertex="1" parent="Rpbk8-4QXfQWtiyHHp3N-9">
          <mxGeometry x="110" y="60" width="76.5" height="93" as="geometry" />
        </mxCell>
        <mxCell id="Rpbk8-4QXfQWtiyHHp3N-12" value="" style="edgeStyle=orthogonalEdgeStyle;rounded=0;orthogonalLoop=1;jettySize=auto;html=1;" edge="1" parent="Rpbk8-4QXfQWtiyHHp3N-9" source="Rpbk8-4QXfQWtiyHHp3N-4" target="Rpbk8-4QXfQWtiyHHp3N-6">
          <mxGeometry relative="1" as="geometry" />
        </mxCell>
        <mxCell id="Rpbk8-4QXfQWtiyHHp3N-13" value="" style="edgeStyle=orthogonalEdgeStyle;rounded=0;orthogonalLoop=1;jettySize=auto;html=1;" edge="1" parent="Rpbk8-4QXfQWtiyHHp3N-9" source="Rpbk8-4QXfQWtiyHHp3N-4" target="Rpbk8-4QXfQWtiyHHp3N-5">
          <mxGeometry relative="1" as="geometry" />
        </mxCell>
        <mxCell id="Rpbk8-4QXfQWtiyHHp3N-4" value="Lambda&lt;br&gt;S3/SQS/DB&lt;div&gt;&lt;br&gt;&lt;/div&gt;" style="outlineConnect=0;dashed=0;verticalLabelPosition=bottom;verticalAlign=top;align=center;html=1;shape=mxgraph.aws3.lambda_function;fillColor=#F58534;gradientColor=none;" vertex="1" parent="Rpbk8-4QXfQWtiyHHp3N-9">
          <mxGeometry x="70" y="220" width="69" height="72" as="geometry" />
        </mxCell>
        <mxCell id="Rpbk8-4QXfQWtiyHHp3N-16" value="" style="edgeStyle=orthogonalEdgeStyle;rounded=0;orthogonalLoop=1;jettySize=auto;html=1;" edge="1" parent="Rpbk8-4QXfQWtiyHHp3N-9" source="Rpbk8-4QXfQWtiyHHp3N-3" target="Rpbk8-4QXfQWtiyHHp3N-7">
          <mxGeometry relative="1" as="geometry" />
        </mxCell>
        <mxCell id="Rpbk8-4QXfQWtiyHHp3N-3" value="Lambda SNS" style="outlineConnect=0;dashed=0;verticalLabelPosition=bottom;verticalAlign=top;align=center;html=1;shape=mxgraph.aws3.lambda_function;fillColor=#F58534;gradientColor=none;" vertex="1" parent="Rpbk8-4QXfQWtiyHHp3N-9">
          <mxGeometry x="290" y="220" width="69" height="72" as="geometry" />
        </mxCell>
        <mxCell id="Rpbk8-4QXfQWtiyHHp3N-15" value="" style="edgeStyle=orthogonalEdgeStyle;rounded=0;orthogonalLoop=1;jettySize=auto;html=1;" edge="1" parent="Rpbk8-4QXfQWtiyHHp3N-9" source="Rpbk8-4QXfQWtiyHHp3N-6" target="Rpbk8-4QXfQWtiyHHp3N-3">
          <mxGeometry relative="1" as="geometry" />
        </mxCell>
        <mxCell id="Rpbk8-4QXfQWtiyHHp3N-6" value="SQS&lt;div&gt;&lt;br&gt;&lt;/div&gt;" style="outlineConnect=0;dashed=0;verticalLabelPosition=bottom;verticalAlign=top;align=center;html=1;shape=mxgraph.aws3.sqs;fillColor=#D9A741;gradientColor=none;" vertex="1" parent="Rpbk8-4QXfQWtiyHHp3N-9">
          <mxGeometry x="120" y="425" width="76.5" height="93" as="geometry" />
        </mxCell>
        <mxCell id="Rpbk8-4QXfQWtiyHHp3N-21" value="" style="edgeStyle=orthogonalEdgeStyle;rounded=0;orthogonalLoop=1;jettySize=auto;html=1;" edge="1" parent="Rpbk8-4QXfQWtiyHHp3N-9" source="Rpbk8-4QXfQWtiyHHp3N-7" target="Rpbk8-4QXfQWtiyHHp3N-20">
          <mxGeometry relative="1" as="geometry" />
        </mxCell>
        <mxCell id="Rpbk8-4QXfQWtiyHHp3N-7" value="SNS&lt;div&gt;&lt;br&gt;&lt;/div&gt;" style="outlineConnect=0;dashed=0;verticalLabelPosition=bottom;verticalAlign=top;align=center;html=1;shape=mxgraph.aws3.sns;fillColor=#D9A741;gradientColor=none;" vertex="1" parent="Rpbk8-4QXfQWtiyHHp3N-9">
          <mxGeometry x="460" y="217.75" width="76.5" height="76.5" as="geometry" />
        </mxCell>
        <mxCell id="Rpbk8-4QXfQWtiyHHp3N-5" value="DynamoDB" style="outlineConnect=0;dashed=0;verticalLabelPosition=bottom;verticalAlign=top;align=center;html=1;shape=mxgraph.aws3.dynamo_db;fillColor=#2E73B8;gradientColor=none;" vertex="1" parent="Rpbk8-4QXfQWtiyHHp3N-9">
          <mxGeometry x="20" y="425" width="72" height="81" as="geometry" />
        </mxCell>
        <mxCell id="Rpbk8-4QXfQWtiyHHp3N-20" value="" style="dashed=0;outlineConnect=0;html=1;align=center;labelPosition=center;verticalLabelPosition=bottom;verticalAlign=top;shape=mxgraph.weblogos.sms;fillColor=#48B921;strokeColor=none" vertex="1" parent="Rpbk8-4QXfQWtiyHHp3N-9">
          <mxGeometry x="463.65" y="40" width="69.2" height="64" as="geometry" />
        </mxCell>
        <mxCell id="Rpbk8-4QXfQWtiyHHp3N-22" value="" style="edgeStyle=orthogonalEdgeStyle;rounded=0;orthogonalLoop=1;jettySize=auto;html=1;" edge="1" parent="1" source="Rpbk8-4QXfQWtiyHHp3N-20" target="Rpbk8-4QXfQWtiyHHp3N-8">
          <mxGeometry relative="1" as="geometry" />
        </mxCell>
      </root>
    </mxGraphModel>
  </diagram>
</mxfile>
